<svg xmlns="http://www.w3.org/2000/svg" height="24px" viewBox="0 -960 960 960" width="24px" fill="#e8eaed"><path d="M484-77.72q-83.99 0-158.08-32.19-74.08-32.2-129.01-87.03-54.94-54.83-87.06-128.95Q77.72-400.01 77.72-484q0-125.28 69.94-227.8 69.95-102.53 187.06-149.13 24.96-10.87 47.44 3.54 22.47 14.41 22.67 40.93-.11 83.11 29.54 159.1t88.48 135.01q58.32 58.33 134.54 87.86t158.59 29.16q27.06.44 42.06 20.41 15 19.96 6.09 42.83-44.91 119.55-148.62 191.96Q611.81-77.72 484-77.72Zm0-86q85.2 0 157.96-42.39t116.52-116.11q-84.81-9.38-160.77-44.66-75.97-35.27-136.51-95.82-60.05-60.04-95.55-135.75-35.5-75.7-44.17-159.79-73.24 43.5-115.5 116.27Q163.72-569.2 163.72-484q0 133.65 93.31 226.97 93.32 93.31 226.97 93.31ZM461.2-462.7Z"/></svg>